<?xml version="1.0" encoding="UTF-8"?>
<svg id="Layer_2" data-name="Layer 2" xmlns="http://www.w3.org/2000/svg" viewBox="0 0 1934.87 980.09">
  <defs>
    <style>
      .cls-1 {
        opacity: .08;
      }

      .cls-2 {
        fill: #757473;
      }

      .cls-3, .cls-4 {
        opacity: .18;
      }

      .cls-4 {
        fill: none;
        stroke: #757473;
        stroke-linecap: round;
        stroke-linejoin: round;
        stroke-width: 3px;
      }
    </style>
  </defs>
  <g id="Layer_2-2" data-name="Layer 2">
    <g class="cls-1">
      <path class="cls-4" d="m460.02,4l-117.04,117.04c-10.06,10.06-10.06,26.36,0,36.41l62.1,62.1c10.06,10.06,26.36,10.06,36.41,0L657.05,4"/>
      <g class="cls-3">
        <path class="cls-2" d="m654.23,52.64c4.74,0,9.2,1.85,12.55,5.2l242.34,242.34c6.92,6.92,6.92,18.18,0,25.09l-62.11,62.11c-3.35,3.35-7.81,5.2-12.55,5.2s-9.2-1.85-12.55-5.2l-242.34-242.34c-6.92-6.92-6.92-18.18,0-25.09l62.11-62.11c3.35-3.35,7.81-5.2,12.55-5.2m0-8c-6.59,0-13.18,2.51-18.2,7.54l-62.11,62.11c-10.05,10.05-10.05,26.35,0,36.41l242.34,242.34c5.03,5.03,11.62,7.54,18.2,7.54s13.18-2.51,18.2-7.54l62.11-62.11c10.05-10.05,10.05-26.35,0-36.41l-242.34-242.34c-5.03-5.03-11.62-7.54-18.2-7.54h0Z"/>
      </g>
      <path class="cls-4" d="m861.19,4l172.06,172.05c10.05,10.06,10.05,26.36,0,36.41l-62.11,62.11c-10.05,10.05-26.35,10.05-36.41,0l-242.34-242.34c-7.63-7.64-9.47-18.86-5.52-28.23"/>
      <g class="cls-3">
        <path class="cls-2" d="m539.32,173.69c4.74,0,9.2,1.85,12.55,5.2l62.11,62.11c6.92,6.92,6.92,18.18,0,25.09l-296.61,296.61c-3.35,3.35-7.81,5.2-12.55,5.2s-9.2-1.85-12.55-5.2l-62.11-62.11c-6.92-6.92-6.92-18.18,0-25.09l296.61-296.61c3.35-3.35,7.81-5.2,12.55-5.2m0-8c-6.59,0-13.18,2.51-18.2,7.54L224.51,469.84c-10.05,10.05-10.05,26.35,0,36.41l62.1,62.11c5.03,5.03,11.62,7.54,18.2,7.54s13.18-2.51,18.2-7.54l296.61-296.61c10.05-10.05,10.05-26.35,0-36.41l-62.11-62.11c-5.03-5.03-11.62-7.54-18.2-7.54h0Z"/>
      </g>
      <g class="cls-3">
        <path class="cls-2" d="m535.76,401.43c4.74,0,9.2,1.85,12.55,5.2l242.34,242.34c6.92,6.92,6.92,18.18,0,25.09l-62.1,62.11c-3.35,3.35-7.81,5.2-12.55,5.2s-9.2-1.85-12.55-5.2l-242.34-242.34c-3.35-3.35-5.2-7.81-5.2-12.55s1.85-9.2,5.2-12.55l62.1-62.11c3.35-3.35,7.81-5.2,12.55-5.2m0-8c-6.59,0-13.18,2.51-18.2,7.54l-62.1,62.11c-10.05,10.05-10.05,26.35,0,36.41l242.34,242.34c5.03,5.03,11.62,7.54,18.2,7.54s13.18-2.51,18.2-7.54l62.1-62.11c10.05-10.05,10.05-26.35,0-36.41l-242.34-242.34c-5.03-5.03-11.62-7.54-18.2-7.54h0Z"/>
      </g>
      <g class="cls-3">
        <path class="cls-2" d="m654.23,282.97c4.74,0,9.2,1.85,12.55,5.2l242.34,242.34c3.35,3.35,5.2,7.81,5.2,12.55s-1.85,9.2-5.2,12.55l-62.11,62.11c-3.35,3.35-7.81,5.2-12.55,5.2s-9.2-1.85-12.55-5.2l-242.34-242.34c-6.92-6.92-6.92-18.18,0-25.09l62.11-62.11c3.35-3.35,7.81-5.2,12.55-5.2m0-8c-6.59,0-13.18,2.51-18.2,7.54l-62.11,62.11c-10.05,10.05-10.05,26.35,0,36.41l242.34,242.34c5.03,5.03,11.62,7.54,18.2,7.54s13.18-2.51,18.2-7.54l62.11-62.11c10.05-10.05,10.05-26.35,0-36.41l-242.34-242.34c-5.03-5.03-11.62-7.54-18.2-7.54h0Z"/>
      </g>
      <path class="cls-4" d="m384.12,4l3.28,3.28c10.05,10.05,10.05,26.35,0,36.41l-62.11,62.1c-10.05,10.06-26.35,10.06-36.41,0L187.09,4"/>
      <path class="cls-4" d="m4,765.17l46.58,46.58c10.05,10.05,26.35,10.05,36.41,0l62.1-62.11c10.05-10.05,10.05-26.35,0-36.41L4,568.14"/>
      <path class="cls-4" d="m4,528.24l165.05,165.04c10.05,10.05,26.35,10.05,36.4,0l62.11-62.11c10.05-10.05,10.05-26.35,0-36.4L25.22,352.42c-5.8-5.79-13.67-8.25-21.22-7.35"/>
      <g class="cls-3">
        <path class="cls-2" d="m424.84,522.16c4.74,0,9.2,1.85,12.55,5.2l62.11,62.11c6.92,6.92,6.92,18.18,0,25.09l-306.64,306.64c-3.35,3.35-7.81,5.2-12.55,5.2s-9.2-1.85-12.55-5.2l-62.11-62.11c-6.92-6.92-6.92-18.18,0-25.09l306.64-306.64c3.35-3.35,7.81-5.2,12.55-5.2m0-8c-6.59,0-13.18,2.51-18.2,7.54L100,828.34c-10.05,10.05-10.05,26.35,0,36.41l62.1,62.1c5.03,5.03,11.62,7.54,18.2,7.54s13.18-2.51,18.2-7.54l306.64-306.64c10.05-10.05,10.05-26.35,0-36.41l-62.11-62.11c-5.03-5.03-11.62-7.54-18.2-7.54h0Z"/>
      </g>
      <path class="cls-4" d="m439.68,946.66l-98.7-98.7c-10.06-10.06-10.06-26.36,0-36.41l62.1-62.1c10.05-10.06,26.35-10.06,36.41,0l187.53,187.53"/>
      <path class="cls-4" d="m665.47,935.51l-206.03-206.02c-10.05-10.05-10.05-26.35,0-36.41l62.11-62.1c10.05-10.06,26.35-10.06,36.41,0l242.34,242.34c10.05,10.05,10.05,26.35,0,36.41"/>
      <path class="cls-4" d="m188.98,966.17l97.93-97.93c10.05-10.06,26.35-10.06,36.41,0l62.1,62.1c5.33,5.33,7.83,12.4,7.51,19.38"/>
      <g class="cls-3">
        <path class="cls-2" d="m1066.7,460.93c4.74,0,9.2,1.85,12.55,5.2l62.1,62.11c6.92,6.92,6.92,18.18,0,25.09l-296.61,296.61c-3.35,3.35-7.81,5.2-12.55,5.2s-9.2-1.85-12.55-5.2l-62.11-62.11c-6.92-6.92-6.92-18.18,0-25.09l296.61-296.61c3.35-3.35,7.81-5.2,12.55-5.2m0-8c-6.59,0-13.18,2.51-18.2,7.54l-296.61,296.61c-10.05,10.05-10.05,26.35,0,36.41l62.11,62.11c5.03,5.03,11.62,7.54,18.2,7.54s13.18-2.51,18.2-7.54l296.61-296.61c10.05-10.05,10.05-26.35,0-36.41l-62.1-62.11c-5.03-5.03-11.62-7.54-18.2-7.54h0Z"/>
      </g>
      <path class="cls-4" d="m1127.72,931.62l-144.89-144.89c-10.05-10.05-10.05-26.35,0-36.41l62.11-62.1c10.05-10.05,26.35-10.05,36.41,0l242.34,242.34c2.18,2.18,3.89,4.66,5.12,7.3h.01"/>
      <g class="cls-3">
        <path class="cls-2" d="m1181.61,570.21c4.74,0,9.2,1.85,12.55,5.2l242.34,242.34c6.92,6.92,6.92,18.18,0,25.09l-62.11,62.11c-3.35,3.35-7.81,5.2-12.55,5.2s-9.2-1.85-12.55-5.2l-242.34-242.34c-6.92-6.92-6.92-18.18,0-25.09l62.1-62.11c3.35-3.35,7.81-5.2,12.55-5.2m0-8c-6.59,0-13.18,2.51-18.2,7.54l-62.1,62.11c-10.05,10.05-10.05,26.35,0,36.41l242.34,242.34c5.03,5.03,11.62,7.54,18.2,7.54s13.18-2.51,18.2-7.54l62.11-62.1c10.05-10.05,10.05-26.35,0-36.41l-242.34-242.34c-5.03-5.03-11.62-7.54-18.2-7.54h0Z"/>
      </g>
      <path class="cls-4" d="m811.42,931.54l122.6-122.59c10.05-10.06,26.35-10.06,36.4,0l62.11,62.1c10.05,10.05,10.05,26.35,0,36.41l-22.74,22.74"/>
      <path class="cls-4" d="m1036.78,930.37l12.15-12.15c10.05-10.05,26.35-10.05,36.41,0l12.88,12.88"/>
      <path class="cls-4" d="m1383.23,940.37l192.65-192.65c10.05-10.05,26.35-10.05,36.4,0l62.11,62.11c10.05,10.05,10.05,26.35,0,36.4l-105.38,105.38"/>
      <path class="cls-4" d="m1629.32,956.15l-.64-.64c-10.05-10.05-10.05-26.35,0-36.41l62.11-62.1c10.05-10.06,26.35-10.06,36.41,0l119.09,119.09"/>
      <g class="cls-3">
        <path class="cls-2" d="m1185.17,112.14c4.74,0,9.2,1.85,12.55,5.2l62.11,62.11c3.35,3.35,5.2,7.81,5.2,12.55s-1.85,9.2-5.2,12.55l-296.61,296.61c-3.35,3.35-7.81,5.2-12.55,5.2s-9.2-1.85-12.55-5.2l-62.1-62.11c-6.92-6.92-6.92-18.18,0-25.09l296.61-296.61c3.35-3.35,7.81-5.2,12.55-5.2m0-8c-6.59,0-13.18,2.51-18.2,7.54l-296.61,296.61c-10.05,10.05-10.05,26.35,0,36.41l62.1,62.11c5.03,5.03,11.62,7.54,18.2,7.54s13.18-2.51,18.2-7.54l296.61-296.61c10.05-10.05,10.05-26.35,0-36.41l-62.11-62.11c-5.03-5.03-11.62-7.54-18.2-7.54h0Z"/>
      </g>
      <g class="cls-3">
        <path class="cls-2" d="m1181.61,339.89c4.74,0,9.2,1.85,12.55,5.2l242.34,242.34c6.92,6.92,6.92,18.18,0,25.09l-62.11,62.11c-3.35,3.35-7.81,5.2-12.55,5.2s-9.2-1.85-12.55-5.2l-242.34-242.34c-6.92-6.92-6.92-18.18,0-25.09l62.1-62.11c3.35-3.35,7.81-5.2,12.55-5.2m0-8c-6.59,0-13.18,2.51-18.2,7.54l-62.1,62.11c-10.05,10.05-10.05,26.35,0,36.41l242.34,242.34c5.03,5.03,11.62,7.54,18.2,7.54s13.18-2.51,18.2-7.54l62.11-62.11c10.05-10.05,10.05-26.35,0-36.41l-242.34-242.34c-5.03-5.03-11.62-7.54-18.2-7.54h0Z"/>
      </g>
      <g class="cls-3">
        <path class="cls-2" d="m1300.08,221.42c4.74,0,9.2,1.85,12.55,5.2l242.34,242.34c3.35,3.35,5.2,7.81,5.2,12.55s-1.85,9.2-5.2,12.55l-62.1,62.11c-3.35,3.35-7.81,5.2-12.55,5.2s-9.2-1.85-12.55-5.2l-242.34-242.34c-3.35-3.35-5.2-7.81-5.2-12.55s1.85-9.2,5.2-12.55l62.1-62.11c3.35-3.35,7.81-5.2,12.55-5.2m0-8c-6.59,0-13.18,2.51-18.2,7.54l-62.1,62.11c-10.05,10.05-10.05,26.35,0,36.41l242.34,242.34c5.03,5.03,11.62,7.54,18.2,7.54s13.18-2.51,18.2-7.54l62.1-62.11c10.05-10.05,10.05-26.35,0-36.41l-242.34-242.34c-5.03-5.03-11.62-7.54-18.2-7.54h0Z"/>
      </g>
      <path class="cls-4" d="m1102.88,4l43.56,43.56c10.05,10.06,10.05,26.36,0,36.41l-62.11,62.11c-10.05,10.05-26.35,10.05-36.41,0L905.85,4"/>
      <path class="cls-4" d="m1338.45,4l114.99,114.99c10.05,10.06,10.05,26.36,0,36.41l-62.11,62.11c-10.05,10.05-26.35,10.05-36.41,0L1141.42,4"/>
      <path class="cls-4" d="m1574.81,4c7.03,10.04,6.06,23.97-2.91,32.93l-62.1,62.11c-10.05,10.05-26.36,10.05-36.41,0l-95.04-95.04"/>
      <g class="cls-3">
        <path class="cls-2" d="m1708.56,399.39c4.74,0,9.2,1.85,12.55,5.2l62.1,62.11c3.35,3.35,5.2,7.81,5.2,12.55s-1.85,9.2-5.2,12.55l-296.61,296.61c-3.35,3.35-7.81,5.2-12.55,5.2s-9.2-1.85-12.55-5.2l-62.1-62.11c-6.92-6.92-6.92-18.18,0-25.09l296.61-296.61c3.35-3.35,7.81-5.2,12.55-5.2m0-8c-6.59,0-13.18,2.51-18.2,7.54l-296.61,296.61c-10.05,10.05-10.05,26.35,0,36.41l62.1,62.1c5.03,5.03,11.62,7.54,18.2,7.54s13.18-2.51,18.2-7.54l296.61-296.61c10.05-10.05,10.05-26.35,0-36.41l-62.1-62.11c-5.03-5.03-11.62-7.54-18.2-7.54h0Z"/>
      </g>
      <path class="cls-4" d="m1930.87,834.33l-207.66-207.66c-10.06-10.05-26.36-10.05-36.41,0l-62.11,62.11c-10.05,10.05-10.05,26.35,0,36.4l242.35,242.35c10.05,10.05,26.35,10.05,36.4,0l27.43-27.43"/>
      <path class="cls-4" d="m1930.87,794.43l-187.71-187.71c-10.05-10.06-10.05-26.36,0-36.41l62.11-62.11c10.05-10.05,26.35-10.05,36.4,0l89.2,89.2"/>
      <g class="cls-3">
        <path class="cls-2" d="m1825.74,47.89c4.74,0,9.2,1.85,12.55,5.2l62.11,62.11c6.92,6.92,6.92,18.18,0,25.09l-296.61,296.61c-3.35,3.35-7.81,5.2-12.55,5.2s-9.2-1.85-12.55-5.2l-62.11-62.11c-3.35-3.35-5.2-7.81-5.2-12.55s1.85-9.2,5.2-12.55L1813.19,53.09c3.35-3.35,7.81-5.2,12.55-5.2m0-8c-6.59,0-13.18,2.51-18.2,7.54l-296.61,296.61c-10.05,10.05-10.05,26.35,0,36.41l62.11,62.11c5.03,5.03,11.62,7.54,18.2,7.54s13.18-2.51,18.2-7.54l296.61-296.61c10.05-10.05,10.05-26.35,0-36.41l-62.11-62.11c-5.03-5.03-11.62-7.54-18.2-7.54h0Z"/>
      </g>
      <path class="cls-4" d="m1930.87,562.68l-189-188.99c-10.05-10.06-10.05-26.36,0-36.41l62.11-62.11c10.05-10.05,26.35-10.05,36.41,0l90.48,90.48"/>
      <path class="cls-4" d="m1930.87,151.09c-3.06,1.25-5.93,3.13-8.42,5.62l-62.11,62.1c-10.05,10.06-10.05,26.36,0,36.41l70.53,70.53"/>
      <line class="cls-4" x1="1930.87" y1="106.95" x2="1827.92" y2="4"/>
      <path class="cls-4" d="m4,803.05l129.56,129.56c10.06,10.05,10.06,26.36,0,36.41l-2.75,2.75"/>
      <path class="cls-4" d="m4,284.18l170.41,170.41c10.05,10.05,26.35,10.05,36.4,0l62.11-62.11c10.05-10.05,10.05-26.35,0-36.41L30.58,113.73c-7.19-7.19-17.58-9.23-26.58-6.15"/>
      <path class="cls-4" d="m157.78,4l233.61,233.6c10.05,10.06,10.05,26.36,0,36.41l-62.11,62.11c-10.05,10.05-26.35,10.05-36.41,0L50.53,93.78c-10.05-10.06-10.05-26.36,0-36.41L103.9,4"/>
      <path class="cls-4" d="m1794.81,4c9.07,10.1,8.74,25.65-.98,35.37l-296.6,296.6c-10.06,10.06-26.36,10.06-36.41,0l-62.11-62.1c-10.05-10.06-10.05-26.36,0-36.41L1632.18,4"/>
      <line class="cls-4" x1="1328.82" y1="937.86" x2="1328.81" y2="937.86"/>
    </g>
  </g>
</svg>