<svg xmlns="http://www.w3.org/2000/svg" width="36" height="36" viewBox="0 0 36 36">
  <path id="_58d86494924d404" data-name="58d86494924d404" d="M33.635,14.731a8.87,8.87,0,0,0-.784-7.366,9.243,9.243,0,0,0-9.9-4.35A9.3,9.3,0,0,0,14.186.2a9.18,9.18,0,0,0-6.86,6.076,9.094,9.094,0,0,0-6.079,4.35A8.973,8.973,0,0,0,2.376,21.267a8.863,8.863,0,0,0,.777,7.366,9.249,9.249,0,0,0,9.906,4.35,9.275,9.275,0,0,0,15.633-3.293,9.1,9.1,0,0,0,6.079-4.35,8.987,8.987,0,0,0-1.137-10.609ZM19.916,33.644a6.863,6.863,0,0,1-4.374-1.561l.216-.121,7.266-4.137a1.189,1.189,0,0,0,.6-1.022V16.7l3.072,1.753a.107.107,0,0,1,.058.078V26.9a6.8,6.8,0,0,1-6.835,6.742ZM5.225,27.455a6.629,6.629,0,0,1-.813-4.52l.216.128L11.9,27.2a1.187,1.187,0,0,0,1.187,0l8.885-5.052v3.5a.12.12,0,0,1-.05.092l-7.36,4.187a6.893,6.893,0,0,1-9.338-2.47ZM3.312,11.844a6.8,6.8,0,0,1,3.6-2.959V17.4a1.147,1.147,0,0,0,.59,1.015l8.842,5.031L13.268,25.2a.116.116,0,0,1-.108,0l-7.345-4.18a6.706,6.706,0,0,1-2.5-9.211Zm25.237,5.784-8.87-5.081L22.743,10.8a.116.116,0,0,1,.108,0L30.2,14.987a6.7,6.7,0,0,1-1.029,12.156V18.627a1.183,1.183,0,0,0-.619-1Zm3.057-4.535-.216-.128L24.132,8.792a1.194,1.194,0,0,0-1.194,0L14.06,13.844v-3.5a.1.1,0,0,1,.043-.092l7.345-4.18a6.921,6.921,0,0,1,7.33.313,6.708,6.708,0,0,1,2.829,6.677v.028Zm-19.223,6.2L9.312,17.549a.121.121,0,0,1-.058-.085V9.111a6.743,6.743,0,0,1,3.94-6.1,6.917,6.917,0,0,1,7.275.923l-.216.121L12.988,8.189a1.189,1.189,0,0,0-.6,1.022Zm1.669-3.548L18.01,13.5l3.964,2.25v4.5l-3.95,2.25-3.964-2.25-.007-4.5Z" transform="translate(0 0)" fill="#fbfafa"/>
</svg>
