<svg xmlns="http://www.w3.org/2000/svg" width="36" height="36" viewBox="0 0 36 36">
  <path id="Icon_metro-blogger" data-name="Icon metro-blogger" d="M36.243,15.428H34.225a2.481,2.481,0,0,1-2.4-2.25A11.3,11.3,0,0,0,20.177,1.928h-5.9A11.67,11.67,0,0,0,2.571,13.553V26.308a11.663,11.663,0,0,0,11.706,11.62h12.6a11.649,11.649,0,0,0,11.693-11.62v-8.24a2.611,2.611,0,0,0-2.327-2.64Zm-22.423-4.5h6.75a2.25,2.25,0,0,1,0,4.5h-6.75a2.25,2.25,0,1,1,0-4.5Zm13.5,18h-13.5a2.25,2.25,0,1,1,0-4.5h13.5a2.25,2.25,0,0,1,0,4.5Z" transform="translate(-2.571 -1.928)" fill="#fbfafa"/>
</svg>
