<svg xmlns="http://www.w3.org/2000/svg" width="48" height="36" viewBox="0 0 48 36">
  <path id="Icon_material-color-lens" data-name="Icon material-color-lens" d="M28.5,4.5c-13.253,0-24,8.06-24,18s10.747,18,24,18c2.213,0,4-1.34,4-3a2.66,2.66,0,0,0-1.04-2.02,2.638,2.638,0,0,1-1.013-1.98c0-1.66,1.787-3,4-3h4.72c7.36,0,13.333-4.48,13.333-10C52.5,11.66,41.753,4.5,28.5,4.5Zm-14.667,18c-2.213,0-4-1.34-4-3s1.787-3,4-3,4,1.34,4,3S16.047,22.5,13.833,22.5Zm8-8c-2.213,0-4-1.34-4-3s1.787-3,4-3,4,1.34,4,3S24.047,14.5,21.833,14.5Zm13.333,0c-2.213,0-4-1.34-4-3s1.787-3,4-3,4,1.34,4,3S37.38,14.5,35.167,14.5Zm8,8c-2.213,0-4-1.34-4-3s1.787-3,4-3,4,1.34,4,3S45.38,22.5,43.167,22.5Z" transform="translate(-4.5 -4.5)" fill="#fbfafa"/>
</svg>
