<svg xmlns="http://www.w3.org/2000/svg" width="36" height="36" viewBox="0 0 36 36">
  <path id="Icon_ionic-ios-resize" data-name="Icon ionic-ios-resize" d="M40.224,5.625h-11.3a1.4,1.4,0,0,0-1.4,1.4v.02a1.4,1.4,0,0,0,1.4,1.4h7.824l-28.3,28.3V28.923a1.4,1.4,0,0,0-1.4-1.4h-.02a1.4,1.4,0,0,0-1.4,1.4v11.3a1.4,1.4,0,0,0,1.4,1.4h11.3a1.4,1.4,0,0,0,1.4-1.4V40.2a1.4,1.4,0,0,0-1.4-1.4H10.5L38.8,10.5v7.824a1.4,1.4,0,0,0,1.4,1.4h.02a1.4,1.4,0,0,0,1.4-1.4V7.026A1.4,1.4,0,0,0,40.224,5.625Z" transform="translate(-5.625 -5.625)" fill="#fbfafa"/>
</svg>
