<svg xmlns="http://www.w3.org/2000/svg" width="38" height="64" viewBox="0 0 38 64">
  <g id="Group_232" data-name="Group 232" transform="translate(-380 -573)">
    <text id="Icons" transform="translate(399 633)" fill="#fbfafa" font-size="16" font-family="Calluna-Bold, Calluna" font-weight="700"><tspan x="-18.52" y="0">Icons</tspan></text>
    <path id="Icon_awesome-icons" data-name="Icon awesome-icons" d="M8.2,15.423a1.1,1.1,0,0,0,1.593,0L16.6,8.4a5.039,5.039,0,0,0-.345-7.3,4.807,4.807,0,0,0-6.559.478L9,2.291l-.693-.713A4.808,4.808,0,0,0,1.748,1.1,5.048,5.048,0,0,0,1.4,8.4Zm10.119,7.066H14.946l-.5-1a1.926,1.926,0,0,0-1.8-1.25H7.6a1.926,1.926,0,0,0-1.8,1.25l-.492,1H1.931A1.93,1.93,0,0,0,0,24.42v9.65A1.929,1.929,0,0,0,1.929,36H18.321a1.93,1.93,0,0,0,1.929-1.93V24.42a1.93,1.93,0,0,0-1.929-1.931Zm-8.2,10.417a3.656,3.656,0,1,1,3.656-3.656A3.656,3.656,0,0,1,10.125,32.906Zm24.989-8.149h-4.26l1.572-3.568c.148-.468-.276-.929-.856-.929H26.255a.851.851,0,0,0-.879.64L24.2,28.418a.8.8,0,0,0,.879.836h4.381l-1.7,5.836c-.133.468.3.907.86.907a.932.932,0,0,0,.768-.369l6.5-9.767c.343-.486-.082-1.1-.764-1.1ZM33.615.023,23.169,1.629a2.2,2.2,0,0,0-1.794,2.226v7.507a5.853,5.853,0,0,0-1.125-.12c-2.486,0-4.5,1.51-4.5,3.375s2.014,3.375,4.5,3.375,4.481-1.5,4.5-3.351V7.007L32.625,5.8V9.114a5.854,5.854,0,0,0-1.125-.12c-2.486,0-4.5,1.51-4.5,3.375s2.014,3.375,4.5,3.375,4.481-1.5,4.5-3.351V2.25A2.147,2.147,0,0,0,33.615.023Z" transform="translate(381 573)" fill="#fbfafa"/>
  </g>
</svg>
