<svg xmlns="http://www.w3.org/2000/svg" width="36" height="36" viewBox="0 0 36 36">
  <path id="Icon_awesome-draw-polygon" data-name="Icon awesome-draw-polygon" d="M30.857,27.964c-.028,0-.054.008-.082.008l-3.15-5.249a4.961,4.961,0,0,0,0-4.947l3.15-5.249c.028,0,.054.008.082.008a5.143,5.143,0,1,0-4.429-7.714H9.572a5.127,5.127,0,1,0-7,7V28.677a5.128,5.128,0,1,0,7,7H26.427a5.134,5.134,0,1,0,4.43-7.714Zm-23.143.714V11.822A5.129,5.129,0,0,0,9.572,9.964H26.315l-3.091,5.151c-.028,0-.054-.008-.082-.008a5.143,5.143,0,1,0,0,10.286c.028,0,.054-.008.082-.008l3.091,5.151H9.572a5.123,5.123,0,0,0-1.858-1.858ZM21.857,20.25a1.286,1.286,0,1,1,1.286,1.286A1.287,1.287,0,0,1,21.857,20.25ZM32.143,7.393a1.286,1.286,0,1,1-1.286-1.286A1.287,1.287,0,0,1,32.143,7.393Zm-27-1.286A1.286,1.286,0,1,1,3.857,7.393,1.287,1.287,0,0,1,5.143,6.107Zm-1.286,27a1.286,1.286,0,1,1,1.286,1.286A1.287,1.287,0,0,1,3.857,33.107Zm27,1.286a1.286,1.286,0,1,1,1.286-1.286A1.287,1.287,0,0,1,30.857,34.393Z" transform="translate(0 -2.25)" fill="#fbfafa"/>
</svg>
