<svg xmlns="http://www.w3.org/2000/svg" width="17.992" height="36" viewBox="0 0 17.992 36">
  <path id="Icon_ionic-ios-phone-portrait" data-name="Icon ionic-ios-phone-portrait" d="M25.529,2.25H12.785a2.644,2.644,0,0,0-2.66,2.644V35.51a2.722,2.722,0,0,0,2.66,2.74H25.521a2.669,2.669,0,0,0,2.6-2.74V4.894A2.578,2.578,0,0,0,25.529,2.25ZM17.92,4.1H20.33a.321.321,0,0,1,0,.643H17.92a.321.321,0,0,1,0-.643Zm1.246,32.946a1.4,1.4,0,1,1,1.4-1.4A1.4,1.4,0,0,1,19.165,37.045Zm7.513-3.937H11.571a.161.161,0,0,1-.161-.161V6.509a.161.161,0,0,1,.161-.161H26.679a.161.161,0,0,1,.161.161V32.946A.161.161,0,0,1,26.679,33.107Z" transform="translate(-10.125 -2.25)" fill="#fbfafa"/>
</svg>
