<svg xmlns="http://www.w3.org/2000/svg" width="31.5" height="36" viewBox="0 0 31.5 36">
  <path id="Icon_awesome-podcast" data-name="Icon awesome-podcast" d="M18.8,34.352C18.442,35.689,17.076,36,15.75,36s-2.692-.311-3.054-1.648a51.235,51.235,0,0,1-1.446-9.338c0-2.472,2.19-3.076,4.5-3.076s4.5.6,4.5,3.076A51.285,51.285,0,0,1,18.8,34.352ZM11.03,20.289a6.75,6.75,0,1,1,9.441,0,.423.423,0,0,0,.044.646,4.678,4.678,0,0,1,1.493,1.783.419.419,0,0,0,.664.133,10.125,10.125,0,1,0-13.844,0,.419.419,0,0,0,.665-.133,4.678,4.678,0,0,1,1.493-1.783.423.423,0,0,0,.044-.646ZM15.75,0A15.755,15.755,0,0,0,8.841,29.911a.422.422,0,0,0,.6-.444c-.167-1.091-.305-2.176-.38-3.118a.424.424,0,0,0-.188-.317,12.375,12.375,0,1,1,13.582.114c-.07.987-.216,2.151-.4,3.321a.422.422,0,0,0,.6.444A15.755,15.755,0,0,0,15.75,0Zm0,11.25a4.5,4.5,0,1,0,4.5,4.5A4.5,4.5,0,0,0,15.75,11.25Z" fill="#fbfafa"/>
</svg>
 