<?xml version="1.0" encoding="UTF-8"?>
<svg id="Layer_2" data-name="Layer 2" xmlns="http://www.w3.org/2000/svg" viewBox="0 0 70.08 135.96">
  <defs>
    <style>
      .cls-1 {
        fill: #878686;
      }
    </style>
  </defs>
  <g id="OBJECTS">
    <g>
      <polygon class="cls-1" points="14.98 135.96 35.04 115.91 55.1 135.96 60.45 135.96 35.04 110.55 9.63 135.96 14.98 135.96"/>
      <polygon class="cls-1" points="0 113.48 0 118.84 35.04 83.8 70.08 118.84 70.08 113.48 35.04 78.45 0 113.48"/>
      <polygon class="cls-1" points="0 129.54 0 134.89 35.04 99.85 70.08 134.89 70.08 129.54 35.04 94.5 0 129.54"/>
      <polygon class="cls-1" points="1.12 0 0 1.11 0 6.47 6.47 0 1.12 0"/>
      <polygon class="cls-1" points="17.17 0 0 17.17 0 22.52 22.52 0 17.17 0"/>
      <polygon class="cls-1" points="31.03 135.96 35.04 131.96 39.04 135.96 44.4 135.96 35.04 126.6 25.68 135.96 31.03 135.96"/>
      <polygon class="cls-1" points="33.22 0 0 33.22 0 38.57 35.04 3.54 70.08 38.57 70.08 33.22 36.86 0 33.22 0"/>
      <polygon class="cls-1" points="47.55 0 70.08 22.52 70.08 17.17 52.91 0 47.55 0"/>
      <polygon class="cls-1" points="63.61 0 70.08 6.47 70.08 1.11 68.96 0 63.61 0"/>
      <polygon class="cls-1" points="0 81.38 0 86.73 35.04 51.69 70.08 86.73 70.08 81.38 35.04 46.34 0 81.38"/>
      <polygon class="cls-1" points="0 97.43 0 102.79 35.04 67.75 70.08 102.79 70.08 97.43 35.04 62.39 0 97.43"/>
      <polygon class="cls-1" points="0 49.27 0 54.63 35.04 19.59 70.08 54.63 70.08 49.27 35.04 14.24 0 49.27"/>
      <polygon class="cls-1" points="0 65.33 0 70.68 35.04 35.64 70.08 70.68 70.08 65.33 35.04 30.29 0 65.33"/>
    </g>
  </g>
</svg>