<svg xmlns="http://www.w3.org/2000/svg" width="36" height="31.507" viewBox="0 0 36 31.507">
  <path id="Icon_awesome-contao" data-name="Icon awesome-contao" d="M3.192,21.445c1.013,4.718,1.856,9.07,4.8,12.3h-5.6A2.393,2.393,0,0,1,0,31.359V4.641A2.393,2.393,0,0,1,2.391,2.25H6.448A16.176,16.176,0,0,0,3.853,5.316C.661,10.238,1.955,15.637,3.192,21.445ZM33.609,2.25H27.267a16.982,16.982,0,0,1,3.705,5.913l-9.64,2.06c-1.048-2.039-2.658-3.748-5.808-3.087a4.741,4.741,0,0,0-3.4,2.433c-.619,1.315-.928,2.8.577,9.865,1.484,7.045,2.37,8.276,3.48,9.225a4.69,4.69,0,0,0,4.1.823c3.129-.661,3.916-2.862,4.036-5.147l9.661-2.081c.225,5.027-1.315,8.8-4.036,11.5h3.663A2.393,2.393,0,0,0,36,31.366V4.641A2.389,2.389,0,0,0,33.609,2.25Z" transform="translate(0 -2.25)" fill="#fbfafa"/>
</svg>
