<svg xmlns="http://www.w3.org/2000/svg" width="36" height="36" viewBox="0 0 36 36">
  <path id="Icon_awesome-border-style" data-name="Icon awesome-border-style" d="M19.286,33.107H16.714a1.286,1.286,0,0,0-1.286,1.286v2.571a1.286,1.286,0,0,0,1.286,1.286h2.571a1.286,1.286,0,0,0,1.286-1.286V34.393A1.286,1.286,0,0,0,19.286,33.107Zm-7.714,0H9a1.286,1.286,0,0,0-1.286,1.286v2.571A1.286,1.286,0,0,0,9,38.25h2.571a1.286,1.286,0,0,0,1.286-1.286V34.393A1.286,1.286,0,0,0,11.571,33.107Zm15.429,0H24.429a1.286,1.286,0,0,0-1.286,1.286v2.571a1.286,1.286,0,0,0,1.286,1.286H27a1.286,1.286,0,0,0,1.286-1.286V34.393A1.286,1.286,0,0,0,27,33.107Zm7.714-15.429H32.143a1.286,1.286,0,0,0-1.286,1.286v2.571a1.286,1.286,0,0,0,1.286,1.286h2.571A1.286,1.286,0,0,0,36,21.536V18.964A1.286,1.286,0,0,0,34.714,17.679Zm0,7.714H32.143a1.286,1.286,0,0,0-1.286,1.286V29.25a1.286,1.286,0,0,0,1.286,1.286h2.571A1.286,1.286,0,0,0,36,29.25V26.679A1.286,1.286,0,0,0,34.714,25.393Zm0,7.714H32.143a1.286,1.286,0,0,0-1.286,1.286v2.571a1.286,1.286,0,0,0,1.286,1.286h2.571A1.286,1.286,0,0,0,36,36.964V34.393A1.286,1.286,0,0,0,34.714,33.107Zm0-23.143H32.143a1.286,1.286,0,0,0-1.286,1.286v2.571a1.286,1.286,0,0,0,1.286,1.286h2.571A1.286,1.286,0,0,0,36,13.821V11.25A1.286,1.286,0,0,0,34.714,9.964Zm0-7.714H2.571A2.571,2.571,0,0,0,0,4.821V36.964A1.286,1.286,0,0,0,1.286,38.25H3.857a1.286,1.286,0,0,0,1.286-1.286V7.393H34.714A1.286,1.286,0,0,0,36,6.107V3.536A1.286,1.286,0,0,0,34.714,2.25Z" transform="translate(0 -2.25)" fill="#fbfafa"/>
</svg>
