<svg xmlns="http://www.w3.org/2000/svg" width="36" height="28.5" viewBox="0 0 36 28.5">
  <path id="Icon_material-style" data-name="Icon material-style" d="M4.071,29.475l2.31.84V16.77L2.192,25.56a2.905,2.905,0,0,0,1.879,3.915Zm33.612-5.55L29.134,5.97a3.5,3.5,0,0,0-3.12-1.845,3.93,3.93,0,0,0-1.362.225l-12.7,4.575a3.034,3.034,0,0,0-2.12,2.7,2.484,2.484,0,0,0,.259,1.2l8.55,17.955a3.482,3.482,0,0,0,3.154,1.845,4.035,4.035,0,0,0,1.327-.225L35.8,27.825a2.872,2.872,0,0,0,1.879-3.9Zm-24.39-10.8a1.628,1.628,0,0,1-1.724-1.5,1.628,1.628,0,0,1,1.724-1.5,1.628,1.628,0,0,1,1.724,1.5A1.628,1.628,0,0,1,13.293,13.125Zm-3.447,16.5a3.257,3.257,0,0,0,3.447,3h2.5L9.846,20.115Z" transform="translate(-1.943 -4.125)" fill="#fff"/>
</svg>
